#!OML:ASF X:\für Bonn\!DataBase\2005_08_11_Bastian_Final\c3d\Bastian.ASF
:FULLY-SPECIFIED
:DEGREES
247
root 21.6831 15.5014 -5.94498 556.311 -137.698 -156.727
lowerback 69.2888 -3.95291 14.288
upperback 15.9627 3.79436 1.55347
thorax -2.04933 2.09893 -5.36726
lowerneck -5.61272 -11.0972 1.32383
upperneck -28.9999 -11.7949 19.1126
head -6.79476 -8.22832 6.60312
rclavicle -6.99722e-014 -1.90833e-014
rhumerus 67.6482 -8.42432 -44.5875
rradius 19.1767
rwrist -12.513
rhand -46.3534 -17.772
rfingers 7.12502
rthumb -19.0856 -46.8556
lclavicle -6.99722e-014 -1.90833e-014
lhumerus -12.6905 -30.0263 92.9651
lradius 48.3901
lwrist 30.1249
lhand -10.3646 -17.019
lfingers 7.12502
lthumb 15.6326 12.3694
rfemur -87.377 -33.829 32.3028
rtibia 76.3521
rfoot -24.5442 -5.99803
rtoes 12.8806
lfemur -74.1274 -16.5303 -32.3801
ltibia 53.6025
lfoot -1.31255 -21.9646
ltoes -15.3806
248
root 21.6807 15.5168 -5.95279 556.367 -137.693 -156.941
lowerback 69.322 -3.96231 14.2031
upperback 15.9121 3.72548 1.4281
thorax -2.11679 2.0709 -5.45227
lowerneck -5.36477 -11.0337 1.38081
upperneck -29.0611 -11.6383 19.2777
head -6.86371 -8.18106 6.67343
rclavicle 7.63333e-014 -3.18055e-015
rhumerus 67.6322 -8.1708 -45.2262
rradius 19.1181
rwrist -11.9745
rhand -46.0917 -17.3084
rfingers 7.12502
rthumb -18.8339 -46.4166
lclavicle 7.63333e-014 -3.18055e-015
lhumerus -12.89 -29.8557 92.8029
lradius 48.3683
lwrist 30.3394
lhand -10.4412 -17.0355
lfingers 7.12502
lthumb 15.5587 12.3586
rfemur -87.1572 -33.7948 32.4724
rtibia 76.1364
rfoot -24.4767 -5.99727
rtoes 12.857
lfemur -73.9701 -16.4359 -32.1963
ltibia 53.4415
lfoot -1.23107 -21.9706
ltoes -15.3532
249
root 21.6793 15.5337 -5.96021 556.457 -137.692 -157.217
lowerback 69.3121 -3.9577 14.1306
upperback 15.8953 3.66839 1.33342
thorax -2.14707 2.04741 -5.5126
lowerneck -5.11956 -10.9711 1.49765
upperneck -29.164 -11.5008 19.3509
head -6.95844 -8.14523 6.7094
rclavicle -7.31528e-014 -9.54166e-015
rhumerus 67.5994 -7.91127 -45.7349
rradius 19.1093
rwrist -11.5818
rhand -45.7918 -16.7978
rfingers 7.12502
rthumb -18.5454 -45.9337
lclavicle -7.31528e-014 -9.54166e-015
lhumerus -13.0714 -29.6373 92.6409
lradius 48.3858
lwrist 30.4711
lhand -10.5113 -17.0179
lfingers 7.12502
lthumb 15.4912 12.3815
rfemur -86.9068 -33.7533 32.6674
rtibia 75.8958
rfoot -24.398 -5.96822
rtoes 12.8901
lfemur -73.7976 -16.303 -32.0131
ltibia 53.2731
lfoot -1.18448 -22.0141
ltoes -15.5313
250
root 21.6777 15.5531 -5.96643 556.53 -137.668 -157.499
lowerback 69.3317 -3.94043 14.0664
upperback 15.8572 3.63638 1.24403
thorax -2.19732 2.03199 -5.57881
lowerneck -4.85756 -10.9299 1.57646
upperneck -29.249 -11.3883 19.4492
head -7.04238 -8.11902 6.75828
rclavicle 1.90833e-014 0
rhumerus 67.5074 -7.62143 -46.0078
rradius 19.0576
rwrist -11.317
rhand -45.5027 -16.3519
rfingers 7.12502
rthumb -18.2673 -45.5142
lclavicle 1.90833e-014 0
lhumerus -13.2382 -29.4022 92.5144
lradius 48.3266
lwrist 30.4819
lhand -10.4897 -16.9871
lfingers 7.12502
lthumb 15.5121 12.4107
rfemur -86.6107 -33.7081 32.8488
rtibia 75.6333
rfoot -24.3379 -5.91743
rtoes 13.0434
lfemur -73.6074 -16.1841 -31.7894
ltibia 53.0944
lfoot -1.09054 -21.9898
ltoes -15.4433
251
root 21.6758 15.5729 -5.97328 556.583 -137.641 -157.787
lowerback 69.335 -3.87309 13.9651
upperback 15.8581 3.62997 1.21033
thorax -2.20958 2.02257 -5.57777
lowerneck -4.65807 -10.8865 1.66074
upperneck -29.348 -11.291 19.4904
head -7.12451 -8.09628 6.7847
rclavicle 0 6.52014e-014
rhumerus 67.428 -7.33876 -46.1607
rradius 19.0531
rwrist -11.1528
rhand -45.2124 -15.855
rfingers 7.12502
rthumb -17.988 -45.0432
lclavicle 0 6.52014e-014
lhumerus -13.3805 -29.2174 92.421
lradius 48.3333
lwrist 30.5432
lhand -10.5902 -16.8999
lfingers 7.12502
lthumb 15.4152 12.5054
rfemur -86.2895 -33.6711 33.0469
rtibia 75.3603
rfoot -24.2537 -5.89434
rtoes 13.0123
lfemur -73.3743 -16.0447 -31.5836
ltibia 52.9039
lfoot -1.05867 -21.9952
ltoes -15.6645
252
root 21.6752 15.5923 -5.97843 556.606 -137.605 -158.043
lowerback 69.3011 -3.81815 13.8809
upperback 15.8788 3.61161 1.16229
thorax -2.19917 2.01342 -5.59591
lowerneck -4.44649 -10.8565 1.72477
upperneck -29.4935 -11.1966 19.5755
head -7.2193 -8.0816 6.83412
rclavicle -4.45278e-014 3.49861e-014
rhumerus 67.2941 -7.04212 -46.1404
rradius 19.0257
rwrist -11.0401
rhand -44.9118 -15.454
rfingers 7.12502
rthumb -17.6988 -44.6685
lclavicle -4.45278e-014 3.49861e-014
lhumerus -13.4566 -29.0617 92.2981
lradius 48.258
lwrist 30.5964
lhand -10.5861 -16.8846
lfingers 7.12502
lthumb 15.4192 12.5203
rfemur -85.9843 -33.6744 33.2291
rtibia 75.0778
rfoot -24.1428 -5.80108
rtoes 12.9422
lfemur -73.1267 -15.9276 -31.3976
ltibia 52.7022
lfoot -1.02792 -21.9735
ltoes -15.9035
253
root 21.6744 15.614 -5.98436 556.561 -137.551 -158.289
lowerback 69.2928 -3.71202 13.7361
upperback 15.9381 3.61131 1.17206
thorax -2.15234 2.00503 -5.53066
lowerneck -4.33123 -10.823 1.73644
upperneck -29.6099 -11.1211 19.6257
head -7.28375 -8.06388 6.86967
rclavicle -4.13472e-014 2.70347e-014
rhumerus 67.2354 -6.76308 -46.0464
rradius 18.9688
rwrist -10.9015
rhand -44.626 -15.0426
rfingers 7.12502
rthumb -17.4238 -44.2817
lclavicle -4.13472e-014 2.70347e-014
lhumerus -13.4364 -28.8738 92.2207
lradius 48.1658
lwrist 30.6317
lhand -10.6374 -16.7621
lfingers 7.12502
lthumb 15.3698 12.6466
rfemur -85.6036 -33.6947 33.3934
rtibia 74.7816
rfoot -24.0382 -5.72002
rtoes 12.9755
lfemur -72.8065 -15.8002 -31.204
ltibia 52.4852
lfoot -0.954026 -21.9137
ltoes -15.6645
254
root 21.6749 15.6371 -5.98894 556.514 -137.481 -158.572
lowerback 69.3013 -3.61854 13.6518
upperback 15.9951 3.63281 1.15347
thorax -2.09544 2.01312 -5.52779
lowerneck -4.30365 -10.8218 1.8394
upperneck -29.6884 -11.1039 19.6521
head -7.32486 -8.07723 6.87407
rclavicle 3.49861e-014 -6.04305e-014
rhumerus 67.0822 -6.5021 -45.8812
rradius 18.9478
rwrist -10.7855
rhand -44.3379 -14.6996
rfingers 7.12502
rthumb -17.1465 -43.963
lclavicle 3.49861e-014 -6.04305e-014
lhumerus -13.291 -28.82 92.1264
lradius 47.9349
lwrist 30.6525
lhand -10.6963 -16.6916
lfingers 7.12502
lthumb 15.3131 12.7215
rfemur -85.1764 -33.7209 33.553
rtibia 74.4671
rfoot -23.9257 -5.57799
rtoes 13.0985
lfemur -72.4549 -15.6805 -30.9838
ltibia 52.2595
lfoot -0.945039 -21.8295
ltoes -15.9597
255
root 21.6757 15.663 -5.99308 556.441 -137.429 -158.887
lowerback 69.2921 -3.52444 13.5734
upperback 16.1123 3.65045 1.17686
thorax -1.97154 2.02016 -5.47691
lowerneck -4.30898 -10.8266 1.82132
upperneck -29.8207 -11.0856 19.7393
head -7.36275 -8.08838 6.91927
rclavicle 2.54444e-014 -7.95139e-015
rhumerus 66.9912 -6.22112 -45.4877
rradius 18.9147
rwrist -10.8601
rhand -44.0943 -14.3565
rfingers 7.12502
rthumb -16.912 -43.6402
lclavicle 2.54444e-014 -7.95139e-015
lhumerus -13.0397 -28.7518 92.0262
lradius 47.7113
lwrist 30.7549
lhand -10.7349 -16.6149
lfingers 7.12502
lthumb 15.2759 12.801
rfemur -84.6696 -33.7728 33.7066
rtibia 74.1386
rfoot -23.8363 -5.44508
rtoes 13.1229
lfemur -72.0316 -15.5433 -30.7702
ltibia 52.0182
lfoot -0.917152 -21.7879
ltoes -16.162
256
root 21.6773 15.6897 -5.99717 556.293 -137.358 -159.154
lowerback 69.2956 -3.39761 13.4415
upperback 16.2495 3.66961 1.22053
thorax -1.83218 2.02429 -5.38271
lowerneck -4.37781 -10.8168 1.84697
upperneck -29.9434 -11.0624 19.7808
head -7.39456 -8.09556 6.93754
rclavicle 5.40694e-014 2.22639e-014
rhumerus 66.8889 -5.90034 -44.9406
rradius 18.8886
rwrist -11.0517
rhand -43.9006 -13.9381
rfingers 7.12502
rthumb -16.7255 -43.2376
lclavicle 5.40694e-014 2.22639e-014
lhumerus -12.7675 -28.6855 91.9277
lradius 47.5085
lwrist 30.8024
lhand -10.7479 -16.4655
lfingers 7.12502
lthumb 15.2634 12.9514
rfemur -84.1249 -33.8583 33.8216
rtibia 73.7932
rfoot -23.7122 -5.30478
rtoes 13.0639
lfemur -71.563 -15.412 -30.5915
ltibia 51.7698
lfoot -0.844903 -21.6904
ltoes -16.1285
257
root 21.6785 15.7171 -5.99979 556.145 -137.281 -159.418
lowerback 69.2802 -3.25549 13.2886
upperback 16.3702 3.69395 1.2828
thorax -1.71639 2.02418 -5.26278
lowerneck -4.44364 -10.8171 1.79716
upperneck -30.0111 -11.06 19.838
head -7.39746 -8.10161 6.96621
rclavicle 4.77083e-014 -8.42847e-014
rhumerus 66.7637 -5.5032 -44.3259
rradius 18.8682
rwrist -11.1704
rhand -43.7521 -13.5906
rfingers 7.12502
rthumb -16.5825 -42.9022
lclavicle 4.77083e-014 -8.42847e-014
lhumerus -12.5838 -28.6634 91.8721
lradius 47.3418
lwrist 30.881
lhand -10.8265 -16.3211
lfingers 7.12502
lthumb 15.1876 13.1015
rfemur -83.5421 -33.9209 33.8741
rtibia 73.4368
rfoot -23.6074 -5.15352
rtoes 13.2051
lfemur -71.0728 -15.2969 -30.4116
ltibia 51.5044
lfoot -0.85388 -21.594
ltoes -16.4682
258
root 21.6791 15.7443 -6.00247 556.001 -137.186 -159.69
lowerback 69.2481 -3.08909 13.1231
upperback 16.4913 3.73293 1.35027
thorax -1.60234 2.02841 -5.13859
lowerneck -4.51992 -10.8371 1.74623
upperneck -30.0577 -11.093 19.884
head -7.38856 -8.12189 6.98829
rclavicle 1.90833e-014 -8.74653e-014
rhumerus 66.6168 -5.06011 -43.6339
rradius 18.8447
rwrist -11.4026
rhand -43.6929 -13.199
rfingers 7.12502
rthumb -16.5256 -42.5153
lclavicle 1.90833e-014 -8.74653e-014
lhumerus -12.396 -28.6484 91.8062
lradius 47.1589
lwrist 30.9735
lhand -10.8756 -16.1862
lfingers 7.12502
lthumb 15.1403 13.24
rfemur -82.9273 -33.9286 33.9004
rtibia 73.0692
rfoot -23.4747 -5.08465
rtoes 13.0738
lfemur -70.5796 -15.1601 -30.2222
ltibia 51.2317
lfoot -0.816124 -21.478
ltoes -16.568
259
root 21.6791 15.7725 -6.0036 555.823 -137.057 -159.918
lowerback 69.2067 -2.88456 12.8802
upperback 16.6036 3.76567 1.43372
thorax -1.51082 2.02127 -4.96562
lowerneck -4.60458 -10.849 1.66267
upperneck -30.0651 -11.1281 19.9067
head -7.36316 -8.13394 7.00243
rclavicle -1.08139e-013 1.27222e-014
rhumerus 66.45 -4.50963 -42.8829
rradius 18.8883
rwrist -11.6408
rhand -43.5317 -12.8329
rfingers 7.12502
rthumb -16.3703 -42.162
lclavicle -1.08139e-013 1.27222e-014
lhumerus -12.2589 -28.5001 91.8075
lradius 46.9558
lwrist 30.9587
lhand -10.8909 -16.1016
lfingers 7.12502
lthumb 15.1256 13.3257
rfemur -82.2815 -33.9218 33.851
rtibia 72.6951
rfoot -23.3521 -4.97063
rtoes 13.195
lfemur -70.0727 -15.0226 -30.0656
ltibia 50.9434
lfoot -0.778205 -21.3561
ltoes -16.6835
